<?xml version="1.0" ?><svg enable-background="new 0 0 32 32" version="1.1" viewBox="0 0 32 32" xml:space="preserve" xmlns="http://www.w3.org/2000/svg" xmlns:xlink="http://www.w3.org/1999/xlink"><g id="Flat_copy"><g><g><path d="M16,31.625c-8.615,0-15.625-7.01-15.625-15.625S7.385,0.375,16,0.375S31.625,7.385,31.625,16     S24.615,31.625,16,31.625z" fill="#FFFFFF"/><path d="M16,0.75c8.409,0,15.25,6.841,15.25,15.25S24.409,31.25,16,31.25S0.75,24.409,0.75,16S7.591,0.75,16,0.75      M16,0C7.163,0,0,7.163,0,16c0,8.836,7.163,16,16,16s16-7.164,16-16C32,7.163,24.837,0,16,0L16,0z" fill="#E5E5E5"/></g></g><g><circle cx="10.324" cy="16" fill="#333333" r="4.415"/><circle cx="21.676" cy="16" fill="#333333" r="4.415"/></g></g></svg>